<svg width="150" height="100" viewBox="0 0 150 100" fill="none" xmlns="http://www.w3.org/2000/svg">
<path d="M0 30C0 13.4315 13.4315 0 30 0H150V70C150 86.5685 136.569 100 120 100H0V30Z" fill="#F7DF1E"/>
<path d="M9.17045 63V36.8182H12.3409V60.1875H24.5114V63H9.17045ZM37.2443 63.4091C35.3523 63.4091 33.7202 62.9915 32.348 62.1562C30.9844 61.3125 29.9318 60.1364 29.1903 58.6278C28.4574 57.1108 28.0909 55.3466 28.0909 53.3352C28.0909 51.3239 28.4574 49.5511 29.1903 48.017C29.9318 46.4744 30.9631 45.2727 32.2841 44.4119C33.6136 43.5426 35.1648 43.108 36.9375 43.108C37.9602 43.108 38.9702 43.2784 39.9673 43.6193C40.9645 43.9602 41.8722 44.5142 42.6903 45.2812C43.5085 46.0398 44.1605 47.0455 44.6463 48.2983C45.1321 49.5511 45.375 51.0937 45.375 52.9261V54.2045H30.2386V51.5966H42.3068C42.3068 50.4886 42.0852 49.5 41.642 48.6307C41.2074 47.7614 40.5852 47.0753 39.7756 46.5724C38.9744 46.0696 38.0284 45.8182 36.9375 45.8182C35.7358 45.8182 34.696 46.1165 33.8182 46.7131C32.9489 47.3011 32.2798 48.0682 31.8111 49.0142C31.3423 49.9602 31.108 50.9744 31.108 52.0568V53.7955C31.108 55.2784 31.3636 56.5355 31.875 57.5668C32.3949 58.5895 33.1151 59.3693 34.0355 59.9062C34.956 60.4347 36.0256 60.6989 37.2443 60.6989C38.0369 60.6989 38.7528 60.5881 39.392 60.3665C40.0398 60.1364 40.598 59.7955 41.0668 59.3438C41.5355 58.8835 41.8977 58.3125 42.1534 57.6307L45.0682 58.4489C44.7614 59.4375 44.2457 60.3068 43.5213 61.0568C42.7969 61.7983 41.902 62.3778 40.8366 62.7955C39.7713 63.2045 38.5739 63.4091 37.2443 63.4091ZM55.7429 63.4602C54.4986 63.4602 53.3693 63.2259 52.3551 62.7571C51.3409 62.2798 50.5355 61.5938 49.9389 60.6989C49.3423 59.7955 49.044 58.7045 49.044 57.4261C49.044 56.3011 49.2656 55.3892 49.7088 54.6903C50.152 53.983 50.7443 53.429 51.4858 53.0284C52.2273 52.6278 53.0455 52.3295 53.9403 52.1335C54.8438 51.929 55.7514 51.767 56.6634 51.6477C57.8565 51.4943 58.8239 51.3793 59.5653 51.3026C60.3153 51.2173 60.8608 51.0767 61.2017 50.8807C61.5511 50.6847 61.7259 50.3437 61.7259 49.858V49.7557C61.7259 48.4943 61.3807 47.5142 60.6903 46.8153C60.0085 46.1165 58.973 45.767 57.5838 45.767C56.1435 45.767 55.0142 46.0824 54.196 46.7131C53.3778 47.3437 52.8026 48.017 52.4702 48.733L49.6065 47.7102C50.1179 46.517 50.7997 45.5881 51.652 44.9233C52.5128 44.25 53.4503 43.7812 54.4645 43.517C55.4872 43.2443 56.4929 43.108 57.4815 43.108C58.1122 43.108 58.8366 43.1847 59.6548 43.3381C60.4815 43.483 61.2784 43.7855 62.0455 44.2457C62.821 44.706 63.4645 45.4006 63.9759 46.3295C64.4872 47.2585 64.7429 48.5028 64.7429 50.0625V63H61.7259V60.3409H61.5724C61.3679 60.767 61.027 61.223 60.5497 61.7088C60.0724 62.1946 59.4375 62.608 58.6449 62.9489C57.8523 63.2898 56.8849 63.4602 55.7429 63.4602ZM56.2031 60.75C57.3963 60.75 58.402 60.5156 59.2202 60.0469C60.0469 59.5781 60.669 58.973 61.0866 58.2315C61.5128 57.4901 61.7259 56.7102 61.7259 55.892V53.1307C61.598 53.2841 61.3168 53.4247 60.8821 53.5526C60.456 53.6719 59.9616 53.7784 59.3991 53.8722C58.8452 53.9574 58.304 54.0341 57.7756 54.1023C57.2557 54.1619 56.8338 54.2131 56.5099 54.2557C55.7259 54.358 54.9929 54.5241 54.3111 54.7543C53.6378 54.9759 53.0923 55.3125 52.6747 55.7642C52.2656 56.2074 52.0611 56.8125 52.0611 57.5795C52.0611 58.6278 52.4489 59.4205 53.2244 59.9574C54.0085 60.4858 55.0014 60.75 56.2031 60.75ZM70.2496 63V43.3636H73.1644V46.3295H73.369C73.7269 45.358 74.3746 44.5696 75.3121 43.9645C76.2496 43.3594 77.3065 43.0568 78.4826 43.0568C78.7042 43.0568 78.9812 43.0611 79.3136 43.0696C79.646 43.0781 79.8974 43.0909 80.0678 43.108V46.1761C79.9656 46.1506 79.7312 46.1122 79.3647 46.0611C79.0067 46.0014 78.6275 45.9716 78.2269 45.9716C77.2724 45.9716 76.4201 46.1719 75.6701 46.5724C74.9286 46.9645 74.3406 47.5099 73.9059 48.2088C73.4798 48.8991 73.2667 49.6875 73.2667 50.5739V63H70.2496ZM86.6612 51.1875V63H83.6442V43.3636H86.5589V46.4318H86.8146C87.2749 45.4347 87.9737 44.6335 88.9112 44.0284C89.8487 43.4148 91.0589 43.108 92.5419 43.108C93.8714 43.108 95.0348 43.3807 96.032 43.9261C97.0291 44.4631 97.8047 45.2812 98.3587 46.3807C98.9126 47.4716 99.1896 48.8523 99.1896 50.5227V63H96.1726V50.7273C96.1726 49.1847 95.772 47.983 94.9709 47.1222C94.1697 46.2528 93.0703 45.8182 91.6726 45.8182C90.7095 45.8182 89.8487 46.027 89.0902 46.4446C88.3402 46.8622 87.7479 47.4716 87.3132 48.2727C86.8786 49.0739 86.6612 50.0455 86.6612 51.1875ZM115.135 36.8182H118.305V55.5341C118.305 57.2045 117.998 58.6236 117.385 59.7912C116.771 60.9588 115.906 61.8452 114.789 62.4503C113.673 63.0554 112.356 63.358 110.839 63.358C109.407 63.358 108.133 63.098 107.017 62.5781C105.9 62.0497 105.022 61.2997 104.383 60.3281C103.744 59.3565 103.424 58.2017 103.424 56.8636H106.544C106.544 57.6051 106.727 58.2528 107.093 58.8068C107.468 59.3523 107.98 59.7784 108.627 60.0852C109.275 60.392 110.012 60.5455 110.839 60.5455C111.751 60.5455 112.527 60.3537 113.166 59.9702C113.805 59.5866 114.291 59.0241 114.623 58.2827C114.964 57.5327 115.135 56.6165 115.135 55.5341V36.8182ZM138.977 43.3636C138.824 42.0682 138.201 41.0625 137.11 40.3466C136.02 39.6307 134.681 39.2727 133.096 39.2727C131.937 39.2727 130.923 39.4602 130.054 39.8352C129.193 40.2102 128.52 40.7259 128.034 41.3821C127.556 42.0384 127.318 42.7841 127.318 43.6193C127.318 44.3182 127.484 44.919 127.816 45.4219C128.157 45.9162 128.592 46.3295 129.12 46.6619C129.649 46.9858 130.203 47.2543 130.782 47.4673C131.362 47.6719 131.895 47.8381 132.38 47.9659L135.039 48.6818C135.721 48.8608 136.48 49.108 137.315 49.4233C138.159 49.7386 138.964 50.169 139.731 50.7145C140.507 51.2514 141.146 51.9418 141.649 52.7855C142.152 53.6293 142.403 54.6648 142.403 55.892C142.403 57.3068 142.032 58.5852 141.291 59.7273C140.558 60.8693 139.484 61.777 138.069 62.4503C136.663 63.1236 134.954 63.4602 132.943 63.4602C131.068 63.4602 129.444 63.1577 128.072 62.5526C126.708 61.9474 125.635 61.1037 124.85 60.0213C124.075 58.9389 123.636 57.6818 123.534 56.25H126.806C126.892 57.2386 127.224 58.0568 127.804 58.7045C128.392 59.3437 129.133 59.821 130.028 60.1364C130.931 60.4432 131.903 60.5966 132.943 60.5966C134.153 60.5966 135.24 60.4006 136.203 60.0085C137.166 59.608 137.929 59.054 138.491 58.3466C139.054 57.6307 139.335 56.7955 139.335 55.8409C139.335 54.9716 139.092 54.2642 138.606 53.7188C138.12 53.1733 137.481 52.7301 136.689 52.3892C135.896 52.0483 135.039 51.75 134.119 51.4943L130.897 50.5739C128.852 49.9858 127.233 49.1463 126.039 48.0554C124.846 46.9645 124.25 45.5369 124.25 43.7727C124.25 42.3068 124.646 41.0284 125.439 39.9375C126.24 38.8381 127.314 37.9858 128.66 37.3807C130.015 36.767 131.528 36.4602 133.199 36.4602C134.886 36.4602 136.386 36.7628 137.699 37.3679C139.011 37.9645 140.051 38.7827 140.818 39.8224C141.593 40.8622 142.002 42.0426 142.045 43.3636H138.977Z" fill="black"/>
</svg>
