<svg width="88" height="19" viewBox="0 0 88 19" fill="none" xmlns="http://www.w3.org/2000/svg">
<path d="M71.0687 15.8821H84.9764C86.1198 15.8821 87.0451 14.9568 87.0451 13.8134C87.0451 12.6699 86.1198 11.7446 84.9764 11.7446H71.0687C69.9253 11.7446 69 12.6699 69 13.8134C69 14.9568 69.9253 15.8821 71.0687 15.8821Z" fill="#E42647"/>
<path d="M71.0687 8.13749H84.9764C86.1198 8.13749 87.0451 7.2122 87.0451 6.06875C87.0451 4.92529 86.1198 4 84.9764 4H71.0687C69.9253 4 69 4.92529 69 6.06875C69 7.2122 69.9253 8.13749 71.0687 8.13749Z" fill="#E42647"/>
<path d="M56.3257 0.0221977C55.8609 0.0681725 55.3398 0.216316 54.9056 0.425758C54.0934 0.813993 53.3833 1.60068 52.7193 2.82158L52.469 3.28133L52.4536 1.83566L52.4434 0.395107L49.1843 0.405325L45.9303 0.42065V9.47777V18.5298H49.4295H52.9287L52.9594 14.4584C52.99 10.1214 53.0104 9.72297 53.2659 8.52251C53.8635 5.74867 55.2887 4.87514 57.6897 5.80486C57.9349 5.90192 58.0626 5.93257 58.0779 5.8917C58.0932 5.86105 58.5785 4.74232 59.1609 3.40904C60.1263 1.19712 60.2081 0.982569 60.1263 0.921268C59.9475 0.788452 58.7931 0.333807 58.3486 0.216316C57.6181 0.0273056 56.9132 -0.0391026 56.3257 0.0221977Z" fill="#58CFE3"/>
<path d="M31.7784 0.0383453C29.5461 0.17627 27.799 0.584938 26.7212 1.22348C25.2908 2.06636 24.5092 3.06759 24.024 4.68694C23.743 5.61155 23.7481 5.59623 23.9473 5.62688C24.0393 5.6422 25.439 5.79545 27.0532 5.96403C28.6674 6.1326 30.0875 6.28074 30.1999 6.29607L30.4094 6.32672L30.6699 5.79034C31.0837 4.94747 31.523 4.57967 32.3863 4.3549C33.1321 4.16589 34.2917 4.11991 34.9609 4.25784C35.911 4.45196 36.3248 4.96279 36.3861 6.01511L36.4168 6.45443L35.6045 6.7405C34.2355 7.22068 33.3773 7.43523 29.9803 8.13507C28.0493 8.53353 27.7735 8.60504 26.9715 8.87578C25.1018 9.52454 24.0853 10.393 23.5693 11.7978C22.8593 13.744 23.273 15.8027 24.6574 17.1973C25.8732 18.4233 27.4465 18.9443 29.9139 18.9443C32.7643 18.9392 34.6493 18.2905 36.4372 16.7069C36.6364 16.5281 36.8152 16.4004 36.8254 16.4208C36.8356 16.4464 36.8663 16.5741 36.8816 16.7069C36.948 17.1615 37.0655 17.5344 37.3056 18.0299L37.5406 18.5306L40.8048 18.5408C42.603 18.551 44.0793 18.5459 44.0895 18.5357C44.0997 18.5255 44.0486 18.3875 43.9771 18.2292C43.7064 17.6315 43.4509 16.8959 43.3692 16.4821C43.2926 16.1041 43.2773 15.4145 43.2466 10.8936C43.2108 5.10582 43.2364 5.50428 42.8124 4.23741C42.2811 2.65893 41.474 1.69345 40.105 0.998714C39.1089 0.492989 37.9442 0.23757 35.9672 0.0945358C34.9251 0.0179119 32.6059 -0.0127392 31.7784 0.0383453ZM36.3861 11.057C36.3606 12.2422 36.3197 12.4772 36.0081 13.1157C35.6556 13.8462 34.7923 14.5256 33.7962 14.8577C33.408 14.9854 33.2036 15.0211 32.7183 15.0416C31.7733 15.0875 31.2522 14.9496 30.8078 14.5409C30.0518 13.8462 30.0365 12.7683 30.767 12.0276C31.1858 11.5985 31.9368 11.292 33.8319 10.771C34.4449 10.6024 35.247 10.3623 35.6096 10.2397C35.9774 10.1171 36.3044 10.0098 36.3452 10.0098C36.4014 9.99962 36.4065 10.1886 36.3861 11.057Z" fill="#58CFE3"/>
<path d="M0.000469093 0.871019C0.0770943 1.07535 7.09596 17.9533 7.35138 18.5459L7.51996 18.9443H10.6105H13.7011L17.5425 9.91279C19.6574 4.94748 21.3891 0.86591 21.3891 0.840368C21.3891 0.789286 14.4009 0.794394 14.3702 0.850586C14.3396 0.896561 14.0893 1.67814 12.8837 5.47874C11.4994 9.83616 10.7535 12.1707 10.7382 12.186C10.728 12.1962 10.7076 12.1605 10.6922 12.1094C10.6667 12.0225 9.84936 9.34065 8.82258 5.98958C8.57228 5.17224 8.14828 3.78277 7.87754 2.89903C7.6068 2.01529 7.35138 1.18263 7.31051 1.0447L7.22878 0.804609H3.60185C0.618579 0.804609 -0.0199643 0.814827 0.000469093 0.871019Z" fill="#58CFE3"/>
</svg>
